<svg width="22" height="22" viewBox="0 0 22 22" fill="none" xmlns="http://www.w3.org/2000/svg">
<path d="M0.00647452 2.79583C-0.104505 1.2236 1.22684 0 2.79974 0H6.16666C6.97406 0 7.70227 0.486486 8.01282 1.23332L9.42073 4.61941C9.76371 5.44425 9.52028 6.39699 8.82398 6.95521L7.94633 7.65879C7.55467 7.97278 7.42151 8.5142 7.65373 8.95928C8.84719 11.2465 10.611 13.1877 12.756 14.5934C13.2088 14.89 13.8069 14.772 14.1447 14.349L15.0592 13.2033C15.6163 12.5056 16.567 12.2617 17.3901 12.6053L20.7692 14.0162C21.5146 14.3274 22 15.0571 22 15.8662V19.25C22 20.8262 20.7338 22.1051 19.1649 21.9935C9.13231 21.2797 0.717713 12.8719 0.00647452 2.79583Z" fill="#F3F7FA"/>
</svg>
